<mxfile host="app.diagrams.net" modified="2023-09-07T18:49:53.879Z" agent="Mozilla/5.0 (Windows NT 10.0; Win64; x64) AppleWebKit/537.36 (KHTML, like Gecko) Chrome/116.0.0.0 Safari/537.36" etag="kpLsKuxrLwROP6S0p4GD" version="21.7.2" type="device">
  <diagram name="Página-1" id="c9uvw3gYUxqFzlKes8iq">
    <mxGraphModel dx="1173" dy="595" grid="1" gridSize="10" guides="1" tooltips="1" connect="1" arrows="1" fold="1" page="1" pageScale="1" pageWidth="827" pageHeight="1169" math="0" shadow="0">
      <root>
        <mxCell id="0" />
        <mxCell id="1" parent="0" />
        <mxCell id="AUjurTuMIAIjrrb0pYJQ-18" style="edgeStyle=orthogonalEdgeStyle;rounded=0;orthogonalLoop=1;jettySize=auto;html=1;entryX=0;entryY=0.5;entryDx=0;entryDy=0;exitX=0.5;exitY=0.5;exitDx=0;exitDy=0;exitPerimeter=0;" edge="1" parent="1" source="AUjurTuMIAIjrrb0pYJQ-1" target="AUjurTuMIAIjrrb0pYJQ-4">
          <mxGeometry relative="1" as="geometry">
            <mxPoint x="290" y="290" as="sourcePoint" />
          </mxGeometry>
        </mxCell>
        <mxCell id="AUjurTuMIAIjrrb0pYJQ-19" style="edgeStyle=orthogonalEdgeStyle;rounded=0;orthogonalLoop=1;jettySize=auto;html=1;exitX=0.5;exitY=0.5;exitDx=0;exitDy=0;exitPerimeter=0;entryX=0;entryY=0.5;entryDx=0;entryDy=0;" edge="1" parent="1" source="AUjurTuMIAIjrrb0pYJQ-1" target="AUjurTuMIAIjrrb0pYJQ-5">
          <mxGeometry relative="1" as="geometry" />
        </mxCell>
        <mxCell id="AUjurTuMIAIjrrb0pYJQ-20" style="edgeStyle=orthogonalEdgeStyle;rounded=0;orthogonalLoop=1;jettySize=auto;html=1;exitX=0.5;exitY=0.5;exitDx=0;exitDy=0;exitPerimeter=0;entryX=0;entryY=0.5;entryDx=0;entryDy=0;" edge="1" parent="1" source="AUjurTuMIAIjrrb0pYJQ-1" target="AUjurTuMIAIjrrb0pYJQ-6">
          <mxGeometry relative="1" as="geometry" />
        </mxCell>
        <mxCell id="AUjurTuMIAIjrrb0pYJQ-21" style="edgeStyle=orthogonalEdgeStyle;rounded=0;orthogonalLoop=1;jettySize=auto;html=1;exitX=0.5;exitY=0.5;exitDx=0;exitDy=0;exitPerimeter=0;entryX=0;entryY=0.5;entryDx=0;entryDy=0;" edge="1" parent="1" source="AUjurTuMIAIjrrb0pYJQ-1" target="AUjurTuMIAIjrrb0pYJQ-7">
          <mxGeometry relative="1" as="geometry" />
        </mxCell>
        <mxCell id="AUjurTuMIAIjrrb0pYJQ-22" style="edgeStyle=orthogonalEdgeStyle;rounded=0;orthogonalLoop=1;jettySize=auto;html=1;exitX=0.5;exitY=0.5;exitDx=0;exitDy=0;exitPerimeter=0;entryX=0;entryY=0.5;entryDx=0;entryDy=0;" edge="1" parent="1" source="AUjurTuMIAIjrrb0pYJQ-1" target="AUjurTuMIAIjrrb0pYJQ-9">
          <mxGeometry relative="1" as="geometry" />
        </mxCell>
        <mxCell id="AUjurTuMIAIjrrb0pYJQ-29" style="edgeStyle=orthogonalEdgeStyle;rounded=0;orthogonalLoop=1;jettySize=auto;html=1;exitX=0.5;exitY=0.5;exitDx=0;exitDy=0;exitPerimeter=0;entryX=0.5;entryY=1;entryDx=0;entryDy=0;" edge="1" parent="1" source="AUjurTuMIAIjrrb0pYJQ-1" target="AUjurTuMIAIjrrb0pYJQ-12">
          <mxGeometry relative="1" as="geometry" />
        </mxCell>
        <mxCell id="AUjurTuMIAIjrrb0pYJQ-32" style="edgeStyle=orthogonalEdgeStyle;rounded=0;orthogonalLoop=1;jettySize=auto;html=1;exitX=0.5;exitY=0.5;exitDx=0;exitDy=0;exitPerimeter=0;entryX=0;entryY=0.5;entryDx=0;entryDy=0;" edge="1" parent="1" source="AUjurTuMIAIjrrb0pYJQ-1" target="AUjurTuMIAIjrrb0pYJQ-10">
          <mxGeometry relative="1" as="geometry" />
        </mxCell>
        <mxCell id="AUjurTuMIAIjrrb0pYJQ-1" value="Prestador de Serviços" style="shape=umlActor;verticalLabelPosition=bottom;verticalAlign=top;html=1;outlineConnect=0;" vertex="1" parent="1">
          <mxGeometry x="190" y="130" width="30" height="60" as="geometry" />
        </mxCell>
        <mxCell id="AUjurTuMIAIjrrb0pYJQ-16" style="edgeStyle=orthogonalEdgeStyle;rounded=0;orthogonalLoop=1;jettySize=auto;html=1;exitX=0.5;exitY=0.5;exitDx=0;exitDy=0;exitPerimeter=0;entryX=0;entryY=0.5;entryDx=0;entryDy=0;" edge="1" parent="1" source="AUjurTuMIAIjrrb0pYJQ-2" target="AUjurTuMIAIjrrb0pYJQ-15">
          <mxGeometry relative="1" as="geometry" />
        </mxCell>
        <mxCell id="AUjurTuMIAIjrrb0pYJQ-2" value="Administrador" style="shape=umlActor;verticalLabelPosition=bottom;verticalAlign=top;html=1;outlineConnect=0;" vertex="1" parent="1">
          <mxGeometry x="190" y="620" width="30" height="60" as="geometry" />
        </mxCell>
        <mxCell id="AUjurTuMIAIjrrb0pYJQ-23" style="edgeStyle=orthogonalEdgeStyle;rounded=0;orthogonalLoop=1;jettySize=auto;html=1;exitX=0.5;exitY=0.5;exitDx=0;exitDy=0;exitPerimeter=0;entryX=0;entryY=0.5;entryDx=0;entryDy=0;" edge="1" parent="1" source="AUjurTuMIAIjrrb0pYJQ-3" target="AUjurTuMIAIjrrb0pYJQ-9">
          <mxGeometry relative="1" as="geometry" />
        </mxCell>
        <mxCell id="AUjurTuMIAIjrrb0pYJQ-24" style="edgeStyle=orthogonalEdgeStyle;rounded=0;orthogonalLoop=1;jettySize=auto;html=1;exitX=0.5;exitY=0.5;exitDx=0;exitDy=0;exitPerimeter=0;entryX=0;entryY=0.5;entryDx=0;entryDy=0;" edge="1" parent="1" source="AUjurTuMIAIjrrb0pYJQ-3" target="AUjurTuMIAIjrrb0pYJQ-7">
          <mxGeometry relative="1" as="geometry" />
        </mxCell>
        <mxCell id="AUjurTuMIAIjrrb0pYJQ-25" style="edgeStyle=orthogonalEdgeStyle;rounded=0;orthogonalLoop=1;jettySize=auto;html=1;exitX=0.5;exitY=0.5;exitDx=0;exitDy=0;exitPerimeter=0;entryX=0;entryY=0.5;entryDx=0;entryDy=0;" edge="1" parent="1" source="AUjurTuMIAIjrrb0pYJQ-3" target="AUjurTuMIAIjrrb0pYJQ-6">
          <mxGeometry relative="1" as="geometry" />
        </mxCell>
        <mxCell id="AUjurTuMIAIjrrb0pYJQ-26" style="edgeStyle=orthogonalEdgeStyle;rounded=0;orthogonalLoop=1;jettySize=auto;html=1;exitX=0.5;exitY=0.5;exitDx=0;exitDy=0;exitPerimeter=0;entryX=0;entryY=0.5;entryDx=0;entryDy=0;" edge="1" parent="1" source="AUjurTuMIAIjrrb0pYJQ-3" target="AUjurTuMIAIjrrb0pYJQ-5">
          <mxGeometry relative="1" as="geometry" />
        </mxCell>
        <mxCell id="AUjurTuMIAIjrrb0pYJQ-27" style="edgeStyle=orthogonalEdgeStyle;rounded=0;orthogonalLoop=1;jettySize=auto;html=1;exitX=0.5;exitY=0.5;exitDx=0;exitDy=0;exitPerimeter=0;entryX=0;entryY=0.5;entryDx=0;entryDy=0;" edge="1" parent="1" source="AUjurTuMIAIjrrb0pYJQ-3" target="AUjurTuMIAIjrrb0pYJQ-4">
          <mxGeometry relative="1" as="geometry" />
        </mxCell>
        <mxCell id="AUjurTuMIAIjrrb0pYJQ-30" style="edgeStyle=orthogonalEdgeStyle;rounded=0;orthogonalLoop=1;jettySize=auto;html=1;exitX=0.5;exitY=0.5;exitDx=0;exitDy=0;exitPerimeter=0;entryX=0.5;entryY=0;entryDx=0;entryDy=0;" edge="1" parent="1" source="AUjurTuMIAIjrrb0pYJQ-3" target="AUjurTuMIAIjrrb0pYJQ-11">
          <mxGeometry relative="1" as="geometry" />
        </mxCell>
        <mxCell id="AUjurTuMIAIjrrb0pYJQ-33" style="edgeStyle=orthogonalEdgeStyle;rounded=0;orthogonalLoop=1;jettySize=auto;html=1;exitX=0.5;exitY=0.5;exitDx=0;exitDy=0;exitPerimeter=0;entryX=0;entryY=0.5;entryDx=0;entryDy=0;" edge="1" parent="1" source="AUjurTuMIAIjrrb0pYJQ-3" target="AUjurTuMIAIjrrb0pYJQ-10">
          <mxGeometry relative="1" as="geometry" />
        </mxCell>
        <mxCell id="AUjurTuMIAIjrrb0pYJQ-3" value="Tomador de Serviços" style="shape=umlActor;verticalLabelPosition=bottom;verticalAlign=top;html=1;outlineConnect=0;" vertex="1" parent="1">
          <mxGeometry x="190" y="310" width="30" height="60" as="geometry" />
        </mxCell>
        <mxCell id="AUjurTuMIAIjrrb0pYJQ-4" value="Cadastrar-se" style="ellipse;whiteSpace=wrap;html=1;" vertex="1" parent="1">
          <mxGeometry x="354" y="40" width="120" height="80" as="geometry" />
        </mxCell>
        <mxCell id="AUjurTuMIAIjrrb0pYJQ-5" value="Editar o cadastro" style="ellipse;whiteSpace=wrap;html=1;" vertex="1" parent="1">
          <mxGeometry x="354" y="130" width="120" height="80" as="geometry" />
        </mxCell>
        <mxCell id="AUjurTuMIAIjrrb0pYJQ-6" value="Login" style="ellipse;whiteSpace=wrap;html=1;" vertex="1" parent="1">
          <mxGeometry x="354" y="220" width="120" height="80" as="geometry" />
        </mxCell>
        <mxCell id="AUjurTuMIAIjrrb0pYJQ-7" value="Realiza avaliações dos serviços" style="ellipse;whiteSpace=wrap;html=1;" vertex="1" parent="1">
          <mxGeometry x="354" y="310" width="120" height="80" as="geometry" />
        </mxCell>
        <mxCell id="AUjurTuMIAIjrrb0pYJQ-9" value="Consulta informações dos perfis" style="ellipse;whiteSpace=wrap;html=1;" vertex="1" parent="1">
          <mxGeometry x="354" y="400" width="120" height="80" as="geometry" />
        </mxCell>
        <mxCell id="AUjurTuMIAIjrrb0pYJQ-10" value="Gerenciar agenda" style="ellipse;whiteSpace=wrap;html=1;" vertex="1" parent="1">
          <mxGeometry x="354" y="490" width="120" height="80" as="geometry" />
        </mxCell>
        <mxCell id="AUjurTuMIAIjrrb0pYJQ-11" value="Solicita o serviço" style="ellipse;whiteSpace=wrap;html=1;" vertex="1" parent="1">
          <mxGeometry x="40" y="380" width="120" height="80" as="geometry" />
        </mxCell>
        <mxCell id="AUjurTuMIAIjrrb0pYJQ-12" value="Aceita ou Recusa serviço" style="ellipse;whiteSpace=wrap;html=1;" vertex="1" parent="1">
          <mxGeometry x="40" y="50" width="120" height="80" as="geometry" />
        </mxCell>
        <mxCell id="AUjurTuMIAIjrrb0pYJQ-17" style="edgeStyle=orthogonalEdgeStyle;rounded=0;orthogonalLoop=1;jettySize=auto;html=1;exitX=0;exitY=0.5;exitDx=0;exitDy=0;entryX=1;entryY=0.5;entryDx=0;entryDy=0;" edge="1" parent="1" source="AUjurTuMIAIjrrb0pYJQ-13" target="AUjurTuMIAIjrrb0pYJQ-10">
          <mxGeometry relative="1" as="geometry" />
        </mxCell>
        <mxCell id="AUjurTuMIAIjrrb0pYJQ-31" style="edgeStyle=orthogonalEdgeStyle;rounded=0;orthogonalLoop=1;jettySize=auto;html=1;exitX=0.5;exitY=1;exitDx=0;exitDy=0;entryX=1;entryY=0.5;entryDx=0;entryDy=0;" edge="1" parent="1" source="AUjurTuMIAIjrrb0pYJQ-13" target="AUjurTuMIAIjrrb0pYJQ-15">
          <mxGeometry relative="1" as="geometry" />
        </mxCell>
        <mxCell id="AUjurTuMIAIjrrb0pYJQ-13" value="CRUD" style="ellipse;whiteSpace=wrap;html=1;" vertex="1" parent="1">
          <mxGeometry x="630" y="300" width="120" height="80" as="geometry" />
        </mxCell>
        <mxCell id="AUjurTuMIAIjrrb0pYJQ-15" value="Gerencia usuários" style="ellipse;whiteSpace=wrap;html=1;" vertex="1" parent="1">
          <mxGeometry x="354" y="610" width="120" height="80" as="geometry" />
        </mxCell>
      </root>
    </mxGraphModel>
  </diagram>
</mxfile>
